<?xml version="1.0" encoding="UTF-8"?>
<svg id="Lag_3" data-name="Lag 3" xmlns="http://www.w3.org/2000/svg" viewBox="0 0 711.67 458.26">
  <defs>
    <style>
      .cls-1 {
        fill: #063;
      }

      .cls-2 {
        fill: #1d1d1b;
      }
    </style>
  </defs>
  <path class="cls-2" d="M6.49,258.19c-1.64-.45-3.28-.91-4.92-1.39-.63-.18-1.39.22-1.54.87s.2,1.34.87,1.54c1.64.48,3.27.94,4.92,1.39.63.17,1.39-.21,1.54-.87s-.2-1.35-.87-1.54h0Z"/>
  <path class="cls-2" d="M22.46,261.95c-1.65-.33-3.3-.68-4.94-1.04-.64-.14-1.38.19-1.54.87-.14.63.19,1.39.87,1.54,1.64.36,3.29.71,4.94,1.04.64.13,1.38-.18,1.54-.87.14-.62-.19-1.4-.87-1.54h0Z"/>
  <path class="cls-2" d="M38.74,264.92c-1.68-.25-3.36-.52-5.03-.81-.34-.06-.66-.05-.96.13-.26.15-.51.45-.57.75-.14.61.18,1.42.87,1.54,1.67.28,3.35.55,5.03.81.34.05.65.06.96-.13.26-.15.51-.45.57-.75.14-.6-.18-1.43-.87-1.54h0Z"/>
  <path class="cls-2" d="M53.2,266.68c-1.03-.1-2.06-.2-3.09-.31-.3-.03-.68.16-.88.37-.22.22-.38.57-.37.88s.12.66.37.88c.26.24.54.33.88.37,1.03.11,2.06.21,3.09.31.3.03.68-.16.88-.37.22-.22.38-.57.37-.88s-.12-.66-.37-.88-.54-.33-.88-.37h0Z"/>
  <path class="cls-2" d="M70.63,267.99c-2.02-.09-4.03-.2-6.04-.33-.65-.04-1.28.61-1.25,1.25.03.71.55,1.2,1.25,1.25,2.01.13,4.03.24,6.04.33.65.03,1.28-.6,1.25-1.25-.03-.7-.55-1.22-1.25-1.25h0Z"/>
  <path class="cls-2" d="M86.16,268.23c-1.35.02-2.7.02-4.05.02-.65,0-1.28.58-1.25,1.25s.55,1.25,1.25,1.25c1.35,0,2.7,0,4.05-.02.65,0,1.28-.57,1.25-1.25s-.55-1.26-1.25-1.25h0Z"/>
  <path class="cls-2" d="M102.37,267.53c-1.57.12-3.15.22-4.72.31-.65.04-1.28.55-1.25,1.25.03.65.55,1.29,1.25,1.25,1.58-.09,3.15-.19,4.72-.31.65-.05,1.28-.54,1.25-1.25-.03-.64-.55-1.3-1.25-1.25h0Z"/>
  <path class="cls-2" d="M118.62,265.81c-.21.03-.42.06-.63.09-.1.01-.19.03-.29.04-.05,0-.1.01-.14.02.16-.02.19-.03.09-.01-.4.05-.8.11-1.2.16-.8.1-1.61.2-2.41.3-.34.04-.63.11-.88.37-.22.22-.38.57-.37.88.03.61.55,1.33,1.25,1.25,1.75-.21,3.5-.44,5.25-.68.29-.04.61-.34.75-.57.16-.27.22-.66.13-.96s-.29-.59-.57-.75c-.32-.17-.61-.18-.96-.13h0Z"/>
  <path class="cls-2" d="M135.78,262.68c-1.97.43-3.94.84-5.92,1.23-.64.12-1.07.93-.87,1.54.22.69.85,1.01,1.54.87,1.98-.38,3.95-.79,5.92-1.23.64-.14,1.07-.92.87-1.54-.22-.67-.85-1.02-1.54-.87h0Z"/>
  <path class="cls-2" d="M151.77,258.54c-1.69.5-3.39.99-5.09,1.45-.63.17-1.08.9-.87,1.54s.86,1.06,1.54.87c1.7-.46,3.4-.95,5.09-1.45.63-.19,1.08-.89.87-1.54s-.87-1.07-1.54-.87h0Z"/>
  <path class="cls-2" d="M169.15,252.59c-2.22.86-4.45,1.69-6.69,2.48-.62.22-1.09.86-.87,1.54.2.61.88,1.11,1.54.87,2.24-.79,4.48-1.62,6.69-2.48.61-.24,1.1-.85.87-1.54-.19-.59-.89-1.13-1.54-.87h0Z"/>
  <path class="cls-2" d="M184.08,245.98c-1.54.74-3.09,1.47-4.64,2.18-.27.12-.5.47-.57.75-.08.3-.05.7.13.96.4.62,1.07.74,1.71.45,1.56-.71,3.1-1.44,4.64-2.18.59-.28.79-1.17.45-1.71-.39-.61-1.08-.75-1.71-.45h0Z"/>
  <path class="cls-2" d="M198.61,237.08c-.15.17-.31.33-.47.48-.07.07-.15.13-.22.2-.05.04-.09.08-.14.12-.03.03-.17.14-.02.02.16-.13-.01,0-.05.03s-.08.06-.12.08c-.09.06-.18.12-.27.18-.18.12-.37.22-.56.33-.18.1-.37.18-.56.27-.2.09.21-.08.06-.03-.05.02-.09.04-.14.05-.1.04-.2.08-.31.12-.42.15-.84.28-1.27.39-.63.16-1.08.9-.87,1.54s.86,1.05,1.54.87c1.93-.5,3.82-1.37,5.17-2.88.43-.49.52-1.29,0-1.77-.48-.44-1.3-.52-1.77,0h0Z"/>
  <path class="cls-2" d="M212.06,227.41c-1.19,1.09-2.41,2.13-3.67,3.13-.23.19-.37.6-.37.88,0,.31.14.67.37.88s.55.38.88.37c.35-.02.61-.15.88-.37,1.26-1,2.49-2.04,3.67-3.13.48-.44.48-1.32,0-1.77-.52-.47-1.25-.47-1.77,0h0Z"/>
  <path class="cls-2" d="M224.51,217.35c-1.1.92-2.2,1.84-3.31,2.76-.23.19-.37.59-.37.88,0,.31.14.67.37.88s.55.38.88.37.62-.14.88-.37c1.11-.91,2.21-1.83,3.31-2.76.23-.2.37-.59.37-.88s-.14-.67-.37-.88-.55-.38-.88-.37-.62.14-.88.37h0Z"/>
  <path class="cls-2" d="M237.14,206.41c-1.19,1.06-2.39,2.11-3.59,3.16-.49.43-.48,1.33,0,1.77.53.48,1.24.46,1.77,0,1.2-1.05,2.4-2.1,3.59-3.16.49-.43.48-1.33,0-1.77-.52-.48-1.24-.46-1.77,0h0Z"/>
  <path class="cls-2" d="M249.16,195.45c-1.18,1.09-2.35,2.17-3.53,3.26-.48.44-.48,1.32,0,1.77.52.47,1.25.47,1.77,0,1.18-1.08,2.36-2.17,3.53-3.26.48-.45.48-1.32,0-1.77-.51-.47-1.25-.47-1.77,0h0Z"/>
  <path class="cls-2" d="M260.72,184.25c-1.07,1.05-2.14,2.11-3.22,3.16-.47.46-.49,1.31,0,1.77s1.27.49,1.77,0c1.07-1.05,2.15-2.1,3.22-3.16.47-.46.49-1.31,0-1.77s-1.27-.49-1.77,0h0Z"/>
  <path class="cls-2" d="M272.23,172.85c-1.03,1.03-2.07,2.05-3.1,3.08-.46.46-.5,1.31,0,1.77s1.27.49,1.77,0c1.03-1.03,2.07-2.05,3.1-3.08.46-.46.5-1.31,0-1.77s-1.27-.49-1.77,0h0Z"/>
  <path class="cls-2" d="M282.79,160.69c-.79.96-1.59,1.92-2.4,2.87-.22.26-.37.54-.37.88,0,.31.14.67.37.88s.55.38.88.37c.32-.01.67-.12.88-.37.8-.95,1.6-1.91,2.4-2.87.22-.26.37-.53.37-.88,0-.31-.14-.67-.37-.88s-.55-.38-.88-.37c-.31.01-.68.11-.88.37h0Z"/>
  <path class="cls-2" d="M293.1,147.98c-.22.29-.44.57-.66.86l.2-.25c-.79,1.02-1.58,2.03-2.38,3.04-.21.27-.37.52-.37.88,0,.31.14.67.37.88s.55.38.88.37c.31-.01.68-.11.88-.37,1.09-1.38,2.17-2.76,3.24-4.15.18-.24.2-.69.13-.96-.08-.29-.3-.6-.57-.75-.29-.15-.64-.23-.96-.13s-.54.3-.75.57h0Z"/>
  <path class="cls-2" d="M303.08,134.36c-.94,1.38-1.9,2.75-2.87,4.12-.18.25-.2.68-.13.96s.3.6.57.75c.64.34,1.3.12,1.71-.45.97-1.36,1.93-2.74,2.87-4.12.37-.54.12-1.41-.45-1.71-.63-.34-1.32-.13-1.71.45h0Z"/>
  <path class="cls-2" d="M311.56,120.23c-.75,1.39-1.51,2.77-2.3,4.14-.33.57-.15,1.39.45,1.71s1.36.16,1.71-.45c.79-1.37,1.55-2.75,2.3-4.14.31-.58.16-1.39-.45-1.71s-1.38-.17-1.71.45h0Z"/>
  <path class="cls-2" d="M318.39,106.6l-1.5,3c-.15.3-.22.63-.13.96.08.29.3.6.57.75.29.15.64.23.96.13.3-.1.6-.28.75-.57l1.5-3c.15-.3.22-.63.13-.96-.08-.29-.3-.6-.57-.75-.29-.15-.64-.23-.96-.13-.3.1-.6.28-.75.57h0Z"/>
  <path class="cls-2" d="M327.16,92.21c-1.11,1.3-2.12,2.69-3.03,4.13-.35.56-.14,1.4.45,1.71.61.32,1.34.14,1.71-.45.58-.93,1.21-1.84,1.88-2.71l-.2.25c.31-.4.62-.79.95-1.17.22-.25.37-.54.37-.88,0-.31-.14-.67-.37-.88-.47-.43-1.31-.53-1.77,0h0Z"/>
  <path class="cls-2" d="M334.45,78.78c-.58,1.12-1.16,2.25-1.75,3.37-.16.3-.22.64-.13.96.08.29.3.6.57.75.58.3,1.39.17,1.71-.45.59-1.12,1.17-2.24,1.75-3.37.15-.3.22-.63.13-.96-.08-.29-.3-.6-.57-.75-.57-.3-1.39-.17-1.71.45h0Z"/>
  <path class="cls-2" d="M343.03,64.2c-.19.4-.44.77-.71,1.12l.2-.25c-.81,1.05-1.84,1.96-2.45,3.15-.3.58-.17,1.38.45,1.71.57.3,1.39.17,1.71-.45.18-.35.4-.68.63-.99l-.2.25c.85-1.09,1.91-2.03,2.52-3.29.15-.31.22-.63.13-.96-.08-.29-.3-.6-.57-.75-.56-.3-1.41-.18-1.71.45h0Z"/>
  <path class="cls-2" d="M352.57,50.78c-.83.91-1.63,1.86-2.4,2.83-.12.11-.21.25-.26.4-.08.15-.11.31-.11.48,0,.31.14.67.37.88s.55.38.88.37c.31-.01.68-.11.88-.37.77-.97,1.57-1.91,2.4-2.83.22-.24.37-.55.37-.88,0-.31-.14-.67-.37-.88s-.55-.38-.88-.37-.66.12-.88.37h0Z"/>
  <path class="cls-2" d="M362.5,38.63c-.84.81-1.65,1.65-2.43,2.52-.22.25-.37.55-.37.88,0,.31.14.67.37.88s.55.38.88.37.66-.12.88-.37c.78-.86,1.59-1.7,2.43-2.52.23-.22.37-.57.37-.88s-.14-.67-.37-.88-.55-.38-.88-.37-.64.13-.88.37h0Z"/>
  <path class="cls-2" d="M375.45,28.17c-1.3.59-2.53,1.3-3.71,2.1-.27.18-.49.42-.57.75-.08.3-.05.7.13.96.35.54,1.13.84,1.71.45,1.18-.8,2.41-1.51,3.71-2.1.27-.12.5-.47.57-.75.08-.3.05-.7-.13-.96s-.43-.5-.75-.57c-.35-.08-.64-.02-.96.13h0Z"/>
  <path class="cls-2" d="M390.44,19.98c-1.66.72-3.3,1.48-4.92,2.29-.59.29-.8,1.17-.45,1.71.39.6,1.08.76,1.71.45,1.62-.81,3.26-1.57,4.92-2.29.27-.12.5-.48.57-.75.08-.3.05-.7-.13-.96s-.43-.5-.75-.57c-.35-.08-.64-.01-.96.13h0Z"/>
  <path class="cls-2" d="M406.58,13.65c-1.58.51-3.16,1.05-4.72,1.61-.61.22-1.09.86-.87,1.54.2.6.88,1.11,1.54.87,1.57-.56,3.14-1.1,4.72-1.61.62-.2,1.09-.88.87-1.54-.2-.62-.87-1.09-1.54-.87h0Z"/>
  <path class="cls-2" d="M422.68,9.88c-1.75.28-3.49.6-5.22.96-.64.13-1.07.92-.87,1.54.22.68.85,1.01,1.54.87,1.73-.36,3.48-.68,5.22-.96.65-.1,1.07-.94.87-1.54-.23-.7-.84-.98-1.54-.87h0Z"/>
  <path class="cls-2" d="M437.85,8.45c-1.24.03-2.48.09-3.72.16-.33.02-.64.13-.88.37-.22.22-.38.57-.37.88.03.64.55,1.29,1.25,1.25,1.24-.07,2.48-.13,3.72-.16.65-.02,1.28-.56,1.25-1.25s-.55-1.27-1.25-1.25h0Z"/>
  <path class="cls-2" d="M452.09,8.95c-1.02-.1-2.03-.18-3.05-.26-.31-.02-.67.15-.88.37s-.38.57-.37.88.12.66.37.88.54.34.88.37c1.02.07,2.03.16,3.05.26.3.03.68-.16.88-.37.22-.22.38-.57.37-.88s-.12-.66-.37-.88c-.26-.24-.54-.33-.88-.37h0Z"/>
  <path class="cls-2" d="M467.54,11.1c-1.29-.26-2.58-.5-3.87-.72-.34-.06-.66-.05-.96.13-.26.15-.51.45-.57.75-.07.32-.06.68.13.96.17.26.43.52.75.57,1.3.22,2.59.46,3.87.72.33.07.66.05.96-.13.26-.15.51-.45.57-.75.14-.62-.19-1.4-.87-1.54h0Z"/>
  <path class="cls-2" d="M483.35,15.59c-1.62-.59-3.25-1.15-4.9-1.67-.62-.2-1.39.23-1.54.87-.15.68.2,1.33.87,1.54,1.65.52,3.28,1.07,4.9,1.67.61.23,1.4-.25,1.54-.87.16-.71-.21-1.3-.87-1.54h0Z"/>
  <path class="cls-2" d="M500.73,22.17c-2.18-.98-4.38-1.92-6.61-2.8-.61-.24-1.4.26-1.54.87-.16.72.22,1.28.87,1.54.53.21,1.06.42,1.59.64.26.11.53.22.79.33.11.05.23.09.34.14.14.06.15.06.04.02.06.02.11.05.17.07,1.03.44,2.06.89,3.08,1.35.59.27,1.37.19,1.71-.45.29-.55.19-1.42-.45-1.71h0Z"/>
  <path class="cls-2" d="M517.57,32.43c-1.29-.99-2.61-1.95-3.95-2.87-.26-.18-.67-.21-.96-.13s-.6.3-.75.57c-.34.64-.13,1.31.45,1.71,1.34.92,2.66,1.88,3.95,2.87.24.18.69.2.96.13.29-.08.6-.3.75-.57.15-.29.23-.64.13-.96s-.3-.54-.57-.75h0Z"/>
  <path class="cls-2" d="M534.73,49.59c-1.86-2.45-3.82-4.81-5.92-7.06-.45-.48-1.32-.49-1.77,0-.47.51-.48,1.26,0,1.77,1,1.07,1.97,2.16,2.91,3.28.46.54.91,1.09,1.35,1.64.23.29.46.57.68.86.05.07.11.14.16.2-.1-.13.05.06.08.1.12.15.23.31.35.46.39.52,1.1.84,1.71.45.51-.33.87-1.15.45-1.71h0Z"/>
  <path class="cls-2" d="M545.54,69.45c-.86-2.34-1.83-4.65-2.9-6.9-.28-.59-1.18-.79-1.71-.45-.61.39-.75,1.08-.45,1.71.25.53.5,1.06.74,1.6.12.27.24.54.36.8.06.13.12.27.17.4.02.04.17.41.1.22.46,1.08.88,2.17,1.28,3.28.22.61.86,1.09,1.54.87.6-.19,1.11-.88.87-1.54h0Z"/>
  <path class="cls-2" d="M548.58,91.85c.25-2.82.25-5.64,0-8.46-.06-.67-.53-1.25-1.25-1.25-.63,0-1.31.57-1.25,1.25.24,2.82.24,5.65,0,8.46-.06.67.62,1.25,1.25,1.25.73,0,1.19-.57,1.25-1.25h0Z"/>
  <path class="cls-2" d="M541.37,110.31c1.01-1.38,1.93-2.82,2.75-4.33.31-.57.16-1.39-.45-1.71s-1.38-.16-1.71.45c-.82,1.5-1.74,2.95-2.75,4.33-.18.25-.2.68-.13.96s.3.6.57.75c.29.15.64.23.96.13s.54-.3.75-.57h0Z"/>
  <path class="cls-2" d="M521.87,125.18c2.9-1.12,5.69-2.51,8.3-4.19.57-.37.8-1.11.45-1.71-.33-.56-1.14-.82-1.71-.45-2.44,1.57-5.08,2.93-7.7,3.94-.61.24-1.1.85-.87,1.54.19.59.88,1.13,1.54.87h0Z"/>
  <path class="cls-2" d="M496.15,124.33c3.92,1.75,8.08,2.75,12.36,2.93,1.61.07,1.61-2.43,0-2.5-3.82-.17-7.61-1.03-11.1-2.59-.62-.28-1.34-.18-1.71.45-.31.53-.17,1.43.45,1.71h0Z"/>
  <path class="cls-2" d="M476.89,110.81c2.02,2.18,4.19,4.22,6.52,6.06.51.41,1.28.54,1.77,0,.42-.45.55-1.33,0-1.77-2.33-1.85-4.5-3.88-6.52-6.06-.44-.48-1.32-.48-1.77,0-.47.52-.47,1.25,0,1.77h0Z"/>
  <path class="cls-2" d="M466.09,94.66c.64,1.4,1.34,2.77,2.08,4.11.32.57,1.15.81,1.71.45s.79-1.1.45-1.71c-.74-1.34-1.44-2.71-2.08-4.11-.12-.27-.47-.5-.75-.57-.3-.08-.7-.05-.96.13s-.5.43-.57.75c-.08.35-.02.64.13.96h0Z"/>
  <path class="cls-2" d="M459.85,68.7c.14,4.11.68,8.21,1.58,12.22.35,1.57,2.76.91,2.41-.66-.85-3.8-1.36-7.66-1.49-11.56-.05-1.6-2.55-1.61-2.5,0h0Z"/>
  <path class="cls-2" d="M462.45,48.96c-.59,1.93-1.08,3.9-1.47,5.88-.13.64.18,1.38.87,1.54.62.14,1.4-.19,1.54-.87.39-1.98.88-3.95,1.47-5.88.19-.63-.23-1.39-.87-1.54s-1.33.2-1.54.87h0Z"/>
  <path class="cls-2" d="M470.5,32.61c-.77,1.07-1.49,2.17-2.18,3.29-.34.56-.14,1.4.45,1.71s1.35.15,1.71-.45c.69-1.12,1.41-2.22,2.18-3.29.18-.25.2-.68.13-.96s-.3-.6-.57-.75c-.29-.15-.64-.23-.96-.13s-.55.3-.75.57h0Z"/>
  <path class="cls-2" d="M481.63,19.98c-2.03,1.41-3.96,2.95-5.77,4.63-.48.45-.49,1.32,0,1.77.51.47,1.26.48,1.77,0,.85-.79,1.73-1.56,2.64-2.29.21-.17.43-.34.64-.51.19-.15-.09.07.03-.02.05-.04.11-.08.16-.12.11-.08.22-.16.33-.25.48-.36.96-.71,1.45-1.05.54-.37.83-1.11.45-1.71-.34-.53-1.14-.85-1.71-.45h0Z"/>
  <path class="cls-2" d="M507.62,5.44c-1.7.61-3.37,1.28-5.03,1.99-.27.11-.5.48-.57.75-.08.3-.05.7.13.96s.43.5.75.57c.35.08.64.01.96-.13.11-.05.23-.1.34-.15l-.13.05c.06-.02.11-.05.17-.07.2-.08.4-.17.6-.25.37-.15.74-.3,1.12-.45.78-.31,1.56-.6,2.34-.88.61-.22,1.09-.86.87-1.54-.2-.6-.88-1.11-1.54-.87h0Z"/>
  <path class="cls-2" d="M529.86.6c-2.99.26-5.97.66-8.92,1.21-.66.12-1.04.93-.87,1.54.19.7.87,1,1.54.87,2.74-.51,5.48-.89,8.26-1.12.67-.06,1.25-.53,1.25-1.25,0-.63-.57-1.31-1.25-1.25h0Z"/>
  <path class="cls-2" d="M550.96.4c-2.49-.22-4.99-.35-7.49-.4-.65-.01-1.28.58-1.25,1.25s.55,1.24,1.25,1.25c2.5.05,5,.18,7.49.4.65.06,1.28-.62,1.25-1.25-.03-.73-.55-1.19-1.25-1.25h0Z"/>
  <path class="cls-2" d="M574.78,4.85c-3.42-.98-6.87-1.83-10.35-2.52-.66-.13-1.35.19-1.54.87-.17.62.21,1.4.87,1.54,3.49.7,6.94,1.54,10.35,2.52,1.55.45,2.21-1.97.66-2.41h0Z"/>
  <path class="cls-2" d="M594.34,12.01c-1.99-.88-4-1.72-6.02-2.53-.61-.24-1.4.26-1.54.87-.16.72.22,1.28.87,1.54.94.37,1.88.76,2.82,1.15.1.04.21.09.31.13-.24-.1.12.05.17.07.22.1.45.19.67.29.48.21.97.42,1.45.63.6.26,1.37.19,1.71-.45.29-.54.19-1.43-.45-1.71h0Z"/>
  <path class="cls-2" d="M614.79,20.82c-2.47-1.07-4.93-2.15-7.39-3.22-.6-.26-1.37-.2-1.71.45-.29.54-.19,1.43.45,1.71,2.46,1.08,4.92,2.15,7.39,3.22.6.26,1.37.2,1.71-.45.28-.54.19-1.43-.45-1.71h0Z"/>
  <path class="cls-2" d="M633.9,29.46c-1.78-.82-3.56-1.64-5.34-2.46-.59-.27-1.37-.19-1.71.45-.29.55-.19,1.42.45,1.71,1.78.81,3.56,1.63,5.34,2.46.59.27,1.37.19,1.71-.45.29-.55.19-1.42-.45-1.71h0Z"/>
  <path class="cls-2" d="M651.79,38.64c-1.49-.91-3.03-1.74-4.59-2.52-.58-.29-1.38-.18-1.71.45-.3.57-.18,1.4.45,1.71,1.56.78,3.1,1.61,4.59,2.52.56.34,1.4.14,1.71-.45s.15-1.35-.45-1.71h0Z"/>
  <path class="cls-2" d="M669.34,48.22c-1.46-.72-2.9-1.47-4.34-2.23-.58-.31-1.39-.17-1.71.45-.31.58-.17,1.38.45,1.71,1.44.76,2.88,1.5,4.34,2.23.58.29,1.38.18,1.71-.45.3-.57.18-1.4-.45-1.71h0Z"/>
  <path class="cls-2" d="M685.37,60.56c-1.14-1.08-2.31-2.13-3.51-3.15-.26-.22-.54-.37-.88-.37-.31,0-.67.14-.88.37s-.38.55-.37.88.12.67.37.88c1.2,1.02,2.37,2.07,3.51,3.15.47.45,1.3.51,1.77,0s.51-1.29,0-1.77h0Z"/>
  <path class="cls-2" d="M696.12,79.68c-.56-2.22-1.32-4.38-2.23-6.48-.26-.6-1.19-.78-1.71-.45-.62.4-.73,1.07-.45,1.71.02.04.2.47.1.24.04.11.09.22.13.32.1.25.2.51.3.76.19.49.37.98.53,1.48.34,1.01.64,2.04.9,3.08.16.63.9,1.08,1.54.87s1.04-.86.87-1.54h0Z"/>
  <path class="cls-2" d="M696.56,101.96c.81-2.72,1.3-5.52,1.47-8.35.04-.65-.6-1.28-1.25-1.25-.71.03-1.21.55-1.25,1.25-.16,2.61-.63,5.13-1.39,7.69-.19.63.22,1.39.87,1.54s1.34-.2,1.54-.87h0Z"/>
  <path class="cls-2" d="M690.23,119.11c.38-1.16.79-2.31,1.22-3.45.11-.29.02-.71-.13-.96s-.45-.51-.75-.57c-.32-.07-.68-.06-.96.13s-.45.43-.57.75c-.43,1.14-.84,2.29-1.22,3.45-.2.62.24,1.39.87,1.54.69.16,1.32-.21,1.54-.87h0Z"/>
  <path class="cls-2" d="M677.52,132.89c.97-.68,1.92-1.39,2.84-2.14.23-.19.37-.6.37-.88,0-.31-.14-.67-.37-.88s-.55-.38-.88-.37l-.33.04c-.21.06-.4.17-.55.32-.29.24-.59.47-.88.7l.25-.2c-.56.43-1.12.85-1.7,1.25-.27.19-.48.42-.57.75-.08.3-.05.7.13.96s.43.5.75.57.69.06.96-.13h0Z"/>
  <path class="cls-2" d="M660,388.71c-5.33-7.86-7.97-17.14-9.07-26.5-1.13-9.63-1.69-20.22,2.83-29.11,2.03-3.99,5.01-8.16,9.24-10.01,4.46-1.94,8.93.36,10.95,4.59,2.29,4.78,1.55,10.71.84,15.77s-1.65,10.16-2.69,15.19c-1.14,5.56-2.52,11.07-4.34,16.45-.9,2.66-1.89,5.31-3.08,7.85-1.09,2.32-2.45,4.55-4.77,5.8-.71.38-.08,1.46.63,1.08,4.17-2.25,5.85-7.39,7.41-11.56,1.96-5.24,3.45-10.64,4.67-16.1s2.29-11.26,3.16-16.93c.8-5.2,1.63-10.93.08-16.06-1.2-3.98-4.35-7.67-8.7-8.06s-8.54,2.81-11.17,6.16c-3.07,3.91-5.22,8.57-6.21,13.44-1.09,5.36-.93,10.94-.57,16.37.74,11.3,3.26,22.75,9.7,32.24.45.66,1.53.04,1.08-.63h0Z"/>
  <path class="cls-2" d="M659.82,389.06c-6.88,1.16-14.04,2.41-20.99,1.1-5.33-1.01-10.65-3.56-13.9-8.04-1.85-2.55-2.8-5.59-3.55-8.61-.86-3.45-1.42-6.97-1.65-10.52-.1-1.5-.32-3.21-.13-4.7.04-.35.07-1.01.43-1.25.25-.17,1.09-.17,1.35-.2.79-.09,1.58-.16,2.37-.2,2.85-.14,5.72.06,8.53.6,6.42,1.23,12.45,4.15,17.35,8.48.6.53,1.49-.35.88-.88-4.75-4.21-10.53-7.17-16.73-8.56-3.02-.68-6.14-1-9.24-.91-1.49.04-3.05.11-4.52.41s-1.65,1.17-1.68,2.51c-.07,3.81.28,7.66.94,11.41.61,3.47,1.42,7.02,2.92,10.23,2.54,5.44,7.7,9.01,13.34,10.72,8.02,2.43,16.53.99,24.6-.38.79-.13.46-1.34-.33-1.21h0Z"/>
  <path class="cls-2" d="M669.83,374.74c2.07-1.5,4.79-1.81,6.19.7.51.9.91,2.14.88,3.19-.02.84-.94,1.3-1.55,1.74-.56.41-1.13.81-1.7,1.2-4.48,3.09-9.22,5.76-14.17,8.01-.73.33-.1,1.41.63,1.08,3.1-1.41,6.13-2.98,9.06-4.73,2.74-1.63,5.62-3.35,8.06-5.41,1.89-1.6.52-5.16-.85-6.73-1.94-2.22-5.02-1.7-7.19-.13-.65.47-.02,1.55.63,1.08h0Z"/>
  <path class="cls-2" d="M683.62,352.47c-3.43,4.97-4.63,11.17-5.72,17-.97,5.18-1.03,11.7,3.97,14.9,4.08,2.61,9.56,1.71,13.04-1.46,3.88-3.53,5.59-9.55,4.28-14.61-.82-3.18-3.04-5.45-5.44-7.56-3.05-2.68-6.11-5.35-9.17-8.02-.6-.53-1.49.35-.88.88,2.28,1.99,4.55,3.98,6.83,5.98,1.98,1.73,4.17,3.4,5.75,5.52,3.18,4.27,2.49,10.56-.41,14.81-2.68,3.92-7.74,5.97-12.25,3.99-5.48-2.4-5.46-9.09-4.52-14.08,1.07-5.73,2.22-11.82,5.59-16.71.46-.66-.62-1.29-1.08-.63h0Z"/>
  <path class="cls-2" d="M685.1,369.42c2.09,2.23,4.31,4.32,6.67,6.26.26.21.63.25.88,0,.22-.22.26-.67,0-.88-2.36-1.94-4.58-4.03-6.67-6.26-.55-.59-1.43.3-.88.88h0Z"/>
  <path class="cls-2" d="M685.84,375.7c1.1-1.1,2.2-2.2,3.31-3.28.55-.54,1.1-1.07,1.65-1.6.48-.46.93-.99,1.55-1.27.31-.14.38-.58.22-.86-.18-.32-.55-.36-.86-.22-.63.29-1.12.8-1.61,1.28-.58.56-1.16,1.13-1.74,1.69-1.14,1.12-2.28,2.24-3.4,3.37-.57.57.32,1.45.88.88h0Z"/>
  <path class="cls-2" d="M698.55,378.05c4.32-3.69,6.24-9.44,6.26-15,0-.44-.4-.67-.79-.6-1.24.22-.77,2.11.39,1.73,1.07-.35.73-2.27-.44-2.16-.37.03-.58.26-.62.62-.1.81.73,1.77,1.48,1,.69-.72-.14-1.78-1.03-1.51s-.97,1.49-.27,1.98c.77.53,1.79-.24,1.68-1.11s-1.26-1.16-1.86-.57c-.65.63-.19,1.65.65,1.78.92.14,1.49-.89.95-1.63s-1.69-.51-1.84.43c-.16,1.09,1.18,1.69,1.89.84.78-.92-.29-2.14-1.34-1.75-.28.11-.43.31-.46.6-.08.86.27,1.85,1.3,1.78.8-.05.8-1.31,0-1.25-.08-.17-.1-.35-.05-.53l-.46.6c.4-.03.49-.26.26-.68l.37.29c-.06-.09-.07-.18-.03-.28l-.62.62h-.27c.18-.11.36-.21.54-.32l.16.09.06.48-.12.13-.79-.6c-.02,5.26-1.82,10.63-5.89,14.12-.61.52.28,1.4.88.88h0Z"/>
  <path class="cls-2" d="M695.32,383.09c3.99-.1,7.77-1.92,10.55-4.75,1.38-1.4,2.53-3.04,3.43-4.78.46-.88.85-1.8,1.2-2.73.23-.63.72-1.6.06-2.14-.36-.3-1.14-.16-1.07.44.08.74.91,1.33,1.58.76.61-.51.24-1.46-.49-1.61-.79-.16-1.32.71-.96,1.38.42.8,1.53.6,1.87-.16.12-.28.1-.53-.1-.76-.45-.52-1.3-.8-1.84-.25s-.24,1.42.42,1.66,1.36-.34,1.36-1.01c0-.78-.85-1.25-1.53-.97-.23.1-.5.31-.46.6.11.9.94,1.61,1.87,1.23.29-.12.57-.42.44-.77-.19-.51-.56-.99-1.17-.95-.52.04-.98.48-.94,1.02.09,1.13,1.89,1.03,1.87-.09-.01-.8-1.26-.81-1.25,0v.11c.06-.15.12-.29.18-.44.13-.15-.09.03-.19.08l.48-.06-.19.66.44-.77c-.13.09-.23.08-.29-.03l-.46.6c.16.03.29.11.37.25l-.1-.76.34.25-1.07.44c-.06-.05-.33.78-.38.92-.16.43-.33.86-.51,1.28-.33.74-.7,1.46-1.11,2.16-.86,1.46-1.9,2.8-3.13,3.97-2.49,2.35-5.77,3.85-9.21,3.94-.8.02-.81,1.27,0,1.25h0Z"/>
  <path class="cls-1" d="M168.79,435c.8,0,.81-1.25,0-1.25s-.81,1.25,0,1.25h0Z"/>
  <path class="cls-2" d="M623.21,372.78l2.54-3.61c.76-1.08,1.33-2.21,2.02-3.33s1.18-2.33,1.75-3.53c.61-1.3,1.29-2.57,1.96-3.84.48-.89.23-2.04-.67-2.57-.85-.5-2.09-.22-2.57.67-.68,1.27-1.35,2.54-1.96,3.84-.56,1.21-1.04,2.4-1.75,3.53s-1.27,2.25-2.02,3.33l-2.54,3.61c-.58.83-.15,2.08.67,2.57.94.55,1.98.16,2.57-.67h0Z"/>
  <path class="cls-2" d="M627.34,382.55c2.43-3.42,4.58-7.02,6.5-10.75s3.73-7.6,5.9-11.24c1.24-2.08-2-3.97-3.24-1.89-2.17,3.64-3.96,7.48-5.9,11.24s-4.07,7.33-6.5,10.75c-.59.83-.15,2.09.67,2.57.94.55,1.98.16,2.57-.67h0Z"/>
  <path class="cls-2" d="M635,387.95c.3-.86,1.09-1.62,1.6-2.36.63-.91,1.2-1.86,1.75-2.82,1.05-1.87,2.01-3.79,2.94-5.72,1.97-4.1,3.94-8.16,6.09-12.17,1.14-2.13-2.09-4.02-3.24-1.89-2.22,4.14-4.24,8.34-6.29,12.57-.99,2.04-2.01,4.08-3.16,6.04-1.05,1.79-2.63,3.4-3.31,5.36-.79,2.29,2.83,3.27,3.62,1h0Z"/>
  <path class="cls-2" d="M644.05,390.33c.33-1.33,1.33-2.62,2-3.8.73-1.28,1.47-2.56,2.2-3.84,1.5-2.63,3.01-5.25,4.51-7.88,1.2-2.1-2.04-3.99-3.24-1.89-1.56,2.72-3.11,5.44-4.67,8.15-.79,1.37-1.57,2.74-2.36,4.11s-1.7,2.65-2.07,4.15c-.58,2.34,3.04,3.34,3.62,1h0Z"/>
  <path class="cls-2" d="M670.19,291.64c1.33-1.47,2.52-3.09,3.51-4.81.33-.57.15-1.39-.45-1.71s-1.36-.16-1.71.45c-.46.8-.97,1.58-1.51,2.34-.13.18-.26.36-.4.53-.1.13.15-.19.04-.06-.03.04-.07.09-.1.13-.08.1-.16.19-.23.29-.3.37-.6.72-.92,1.07-.44.48-.51,1.3,0,1.77.48.44,1.3.52,1.77,0h0Z"/>
  <path class="cls-2" d="M678.27,278.61c.71-1.93,1.46-3.85,2.26-5.74.12-.28.02-.72-.13-.96-.15-.26-.45-.51-.75-.57-.32-.07-.68-.06-.96.13s-.44.43-.57.75c-.8,1.9-1.55,3.81-2.26,5.74-.22.62.25,1.4.87,1.54.71.16,1.3-.21,1.54-.87h0Z"/>
  <path class="cls-2" d="M682.48,263.05c.06-1.78.13-3.57.19-5.35.02-.65-.59-1.28-1.25-1.25-.7.03-1.22.55-1.25,1.25-.06,1.78-.13,3.57-.19,5.35-.02.65.59,1.28,1.25,1.25.7-.03,1.22-.55,1.25-1.25h0Z"/>
  <path class="cls-2" d="M680.08,247.46c-.21-2.32-1.12-4.46-2.68-6.2-.44-.49-1.33-.48-1.77,0-.48.52-.47,1.25,0,1.77.08.09.16.18.23.27.04.05.07.09.11.14.08.11.07.09-.03-.04.16.15.28.4.4.58.25.4.47.81.66,1.24.05.13.05.11-.02-.06.02.05.04.11.06.16.04.11.08.22.12.33.08.22.14.45.2.67s.11.46.15.69c.01.06.02.12.03.17.02.14.02.12,0-.07.04.1.03.24.04.35.06.65.53,1.28,1.25,1.25.63-.03,1.31-.55,1.25-1.25h0Z"/>
  <path class="cls-2" d="M672.29,233.62c-.66-.71-1.3-1.44-1.92-2.19-.3-.36-.6-.73-.89-1.1-.08-.1-.16-.2-.24-.3-.1-.12,0-.01.04.05-.03-.05-.07-.09-.1-.14-.16-.2-.31-.41-.46-.62-.2-.27-.41-.48-.75-.57-.3-.08-.7-.05-.96.13-.52.33-.87,1.15-.45,1.71,1.24,1.67,2.56,3.27,3.97,4.8.45.48,1.32.48,1.77,0,.47-.51.48-1.26,0-1.77h0Z"/>
  <path class="cls-2" d="M653.53,220.68c1.33,1.3,2.71,2.55,4.12,3.76.26.22.54.37.88.37.31,0,.67-.14.88-.37.43-.47.53-1.31,0-1.77-1.42-1.21-2.79-2.46-4.12-3.76-.47-.46-1.31-.5-1.77,0s-.5,1.28,0,1.77h0Z"/>
  <path class="cls-2" d="M643.6,209.38c.31.34.62.69.92,1.04.15.18.3.36.44.54.07.08.14.17.2.26.02.03.14.18.03.03-.13-.16.04.05.05.07.56.74,1.09,1.5,1.58,2.28.35.55,1.13.82,1.71.45s.82-1.12.45-1.71c-1.06-1.68-2.27-3.26-3.61-4.73-.44-.48-1.32-.48-1.77,0-.47.52-.47,1.25,0,1.77h0Z"/>
  <path class="cls-2" d="M638.47,193.62c-.22,2.12.07,4.32.84,6.31.24.61.85,1.1,1.54.87.59-.19,1.13-.89.87-1.54-.18-.47-.34-.95-.47-1.45-.06-.25-.12-.49-.17-.74-.02-.11-.04-.21-.06-.32-.01-.07-.02-.14-.03-.21-.02-.13-.02-.14,0-.05.01.09.01.08,0-.05,0-.07-.02-.14-.02-.22-.01-.11-.02-.22-.03-.32-.02-.25-.03-.51-.03-.76,0-.51.02-1.01.07-1.52.07-.65-.62-1.28-1.25-1.25-.74.03-1.18.55-1.25,1.25h0Z"/>
  <path class="cls-2" d="M640.21,178.13c-.79,1.93-1.2,4-1.24,6.08-.01.65.58,1.28,1.25,1.25s1.23-.55,1.25-1.25c.01-.5.04-1,.1-1.5,0-.06.04-.39,0-.09.01-.11.03-.21.05-.32.04-.25.09-.49.14-.74.2-.95.49-1.87.86-2.77.25-.61-.27-1.4-.87-1.54-.73-.17-1.27.22-1.54.87h0Z"/>
  <path class="cls-2" d="M647.41,162.56c-1.57,1.65-2.74,3.61-3.48,5.76-.21.62.24,1.39.87,1.54.69.16,1.31-.21,1.54-.87.08-.24.17-.47.26-.7.01-.03.09-.22.02-.05s0-.02.02-.05c.05-.12.11-.24.16-.36.21-.45.45-.89.71-1.31s.53-.81.81-1.2c.1-.14-.19.24,0,0,.04-.05.07-.09.11-.14.07-.09.15-.18.22-.27.17-.2.35-.4.53-.59.45-.47.51-1.3,0-1.77s-1.29-.51-1.77,0h0Z"/>
  <path class="cls-2" d="M657.38,150.9c-.73-.05-1.35.41-1.78.95-.4.5-.79,1.01-1.18,1.53-.67.89-1.31,1.81-1.92,2.75-.36.55-.13,1.41.45,1.71.62.33,1.33.14,1.71-.45.55-.84,1.12-1.66,1.71-2.47.15-.2.29-.4.44-.59.04-.05.07-.09.11-.14.09-.12.01-.01-.04.05.08-.1.16-.21.24-.31.14-.18.28-.37.43-.54.03-.04.07-.07.1-.1.11-.12-.05.04-.09.06.2-.12-.21.06-.09.02s-.34,0-.1.02c.65.04,1.28-.61,1.25-1.25-.03-.71-.55-1.2-1.25-1.25h0Z"/>
  <path class="cls-2" d="M664.28,147.06c1.24-.57,2.38-1.39,3.34-2.35.46-.46.5-1.31,0-1.77s-1.27-.5-1.77,0c-.33.33-.67.63-1.04.92l.25-.2c-.63.49-1.32.9-2.05,1.24-.27.12-.5.47-.57.75-.08.3-.05.7.13.96s.43.5.75.57l.33.04c.23,0,.44-.06.63-.17h0Z"/>
</svg>