<?xml version="1.0" encoding="UTF-8"?>
<svg id="Lag_1" xmlns="http://www.w3.org/2000/svg" version="1.1" viewBox="0 0 283.46 283.46">
  <!-- Generator: Adobe Illustrator 29.2.1, SVG Export Plug-In . SVG Version: 2.1.0 Build 116)  -->
  <defs>
    <style>
      .st0 {
        fill: #e8e2dc;
      }
    </style>
  </defs>
  <g id="_x3C_Radial_gentagelse_x3E_">
    <path class="st0" d="M127.01,202.16v-42.55c16.15,0,29.45,19.21,29.45,42.55s-13.29,42.55-29.45,42.55v-42.55Z"/>
  </g>
  <g id="_x3C_Radial_gentagelse_x3E_1" data-name="_x3C_Radial_gentagelse_x3E_">
    <path class="st0" d="M86.19,173.06l30.08-30.08c11.42,11.42,7.24,34.4-9.26,50.91s-39.48,20.69-50.91,9.26l30.08-30.08Z"/>
  </g>
  <g id="_x3C_Radial_gentagelse_x3E_2" data-name="_x3C_Radial_gentagelse_x3E_">
    <path class="st0" d="M77.91,123.62h42.55c0,16.15-19.21,29.45-42.55,29.45s-42.55-13.29-42.55-29.45h42.55Z"/>
  </g>
  <g id="_x3C_Radial_gentagelse_x3E_3" data-name="_x3C_Radial_gentagelse_x3E_">
    <path class="st0" d="M107.02,82.81l30.08,30.08c-11.42,11.42-34.4,7.24-50.91-9.26s-20.69-39.48-9.26-50.91l30.08,30.08Z"/>
  </g>
  <g id="_x3C_Radial_gentagelse_x3E_4" data-name="_x3C_Radial_gentagelse_x3E_">
    <path class="st0" d="M156.46,74.53v42.55c-16.15,0-29.45-19.21-29.45-42.55s13.29-42.55,29.45-42.55v42.55Z"/>
  </g>
  <g id="_x3C_Radial_gentagelse_x3E_5" data-name="_x3C_Radial_gentagelse_x3E_">
    <path class="st0" d="M197.27,103.63l-30.08,30.08c-11.42-11.42-7.24-34.4,9.26-50.91s39.48-20.69,50.91-9.26l-30.08,30.08Z"/>
  </g>
  <g id="_x3C_Radial_gentagelse_x3E_6" data-name="_x3C_Radial_gentagelse_x3E_">
    <path class="st0" d="M205.55,153.07h-42.55c0-16.15,19.21-29.45,42.55-29.45s42.55,13.29,42.55,29.45h-42.55Z"/>
  </g>
  <g id="_x3C_Radial_gentagelse_x3E_7" data-name="_x3C_Radial_gentagelse_x3E_">
    <path class="st0" d="M176.45,193.88l-30.08-30.08c11.42-11.42,34.4-7.24,50.91,9.26s20.69,39.48,9.26,50.91l-30.08-30.08Z"/>
  </g>
</svg>