<?xml version="1.0" encoding="UTF-8"?>
<svg id="Lag_1" data-name="Lag 1" xmlns="http://www.w3.org/2000/svg" viewBox="0 0 364.29 197.33">
  <g>
    <path d="M118.95,106.88c0,4.09-.16,9.46-.47,16.14-.32,6.68-.79,13.58-1.41,20.73-.63,7.15-1.42,13.98-2.36,20.49-.94,6.52-2.04,11.58-3.3,15.19-2.2,6.28-5.62,10.8-10.25,13.54-4.63,2.75-10.17,4.12-16.61,4.12-3.46,0-6.59-.2-9.42-.59-2.83-.39-5.3-1.26-7.42-2.59-2.12-1.33-3.77-3.18-4.95-5.54-1.18-2.36-1.77-5.49-1.77-9.42,0-4.39.43-8.79,1.3-13.19.86-4.39,1.77-8.71,2.71-12.96-3.62,2.67-7.5,4.79-11.66,6.36-4.16,1.57-8.52,2.36-13.07,2.36-6.59,0-12.41-1.45-17.43-4.36-5.03-2.9-9.23-6.71-12.6-11.42-3.38-4.71-5.93-10.01-7.66-15.9-1.73-5.89-2.59-11.81-2.59-17.78,0-7.85,1.18-15.82,3.53-23.91,2.36-8.09,5.45-15.94,9.3-23.56,3.85-7.61,8.16-14.99,12.96-22.14,4.79-7.14,9.62-13.7,14.49-19.67.31-.47,1.06-1.41,2.24-2.83s2.47-2.94,3.89-4.59c1.42-1.65,2.71-3.14,3.89-4.48,1.18-1.33,2-2.16,2.47-2.47,1.41-.94,2.9-1.88,4.47-2.83,1.57-.94,3.22-1.41,4.95-1.41,1.1,0,2.79.43,5.07,1.3,2.27.86,4.67,1.88,7.18,3.06,2.51,1.18,4.87,2.32,7.07,3.42,2.2,1.1,3.77,1.88,4.71,2.36,4.55,2.36,7.73,5.42,9.54,9.19s2.71,8.09,2.71,12.96c0,5.65-.82,11.19-2.47,16.61-1.65,5.42-21.01,44.71-23.05,49.89,2.36-.78,22.26-35.44,24.7-35.99,2.43-.55,4.91-.82,7.42-.82,2.2,0,4.08.32,5.65.94,1.57.63,2.83,1.88,3.77,3.77.94,1.88,1.69,4.44,2.24,7.66.55,3.22,1.02,6.56,1.41,10.01.39,3.46.63,6.87.71,10.25.08,3.38.12,6.09.12,8.13Z"/>
    <path d="M242.31,94.46c0,8.64-.47,17.31-1.41,26.03-.94,8.72-2.67,17.24-5.18,25.56-1.73,5.65-4.09,11.35-7.07,17.08-2.98,5.73-6.68,10.88-11.07,15.43-4.4,4.56-9.34,8.24-14.84,11.07-5.5,2.83-11.54,4.24-18.14,4.24-7.7,0-14.53-1.53-20.49-4.59-5.97-3.06-11.19-7.1-15.66-12.13-4.47-5.02-8.24-10.79-11.31-17.31-3.06-6.51-5.53-13.31-7.42-20.38-1.88-7.07-3.26-14.13-4.12-21.2-.87-7.07-1.3-13.58-1.3-19.55,0-4.71.12-9.38.35-14.01.24-4.63.74-9.3,1.53-14.02,1.1-8.01,2.98-16.17,5.65-24.5,2.67-8.32,6.36-15.9,11.07-22.73,4.71-6.83,10.52-12.44,17.43-16.84,6.91-4.39,15.15-6.6,24.73-6.6.47,0,.94.04,1.41.12.47.08,1.02.12,1.65.12,11.15.63,20.18,3.38,27.09,8.24,6.91,4.87,12.56,12.48,16.96,22.85,1.88,4.56,3.45,9.5,4.71,14.84,1.26,5.34,2.32,10.76,3.18,16.25.86,5.5,1.45,10.99,1.77,16.49.31,5.5.47,10.68.47,15.55ZM197.82,48.36c.51-1.81.53-3.6.05-5.37-.48-1.76-1.7-2.93-3.67-3.48-2.57-.73-4.74-.28-6.5,1.35-1.77,1.62-2.97,3.57-3.61,5.83-.56,1.97-8.8,44.84-8.1,46.42.69,1.58,2.02,2.65,3.99,3.21,2.57.73,4.65.3,6.24-1.3,1.59-1.59,10.99-44.54,11.59-46.66Z"/>
  </g>
  <path d="M364.29,107.11c0,4.09-.16,9.46-.47,16.14-.32,6.68-.79,13.58-1.41,20.73-.63,7.15-1.42,13.98-2.36,20.49-.94,6.52-2.04,11.58-3.3,15.19-2.2,6.28-5.62,10.8-10.25,13.54-4.63,2.75-10.17,4.12-16.61,4.12-3.46,0-6.59-.2-9.42-.59-2.83-.39-5.3-1.26-7.42-2.59-2.12-1.33-3.77-3.18-4.95-5.54-1.18-2.36-1.77-5.49-1.77-9.42,0-4.39.43-8.79,1.3-13.19.86-4.39,1.77-8.71,2.71-12.96-3.62,2.67-7.5,4.79-11.66,6.36-4.16,1.57-8.52,2.36-13.07,2.36-6.59,0-12.41-1.45-17.43-4.36-5.03-2.9-9.23-6.71-12.6-11.42-3.38-4.71-5.93-10.01-7.66-15.9-1.73-5.89-2.59-11.81-2.59-17.78,0-7.85,1.18-15.82,3.53-23.91,2.36-8.09,5.45-15.94,9.3-23.56,3.85-7.61,8.16-14.99,12.96-22.14,4.79-7.14,9.62-13.7,14.49-19.67.31-.47,1.06-1.41,2.24-2.83s2.47-2.94,3.89-4.59c1.42-1.65,2.71-3.14,3.89-4.48,1.18-1.33,2-2.16,2.47-2.47,1.41-.94,2.9-1.88,4.47-2.83,1.57-.94,3.22-1.41,4.95-1.41,1.1,0,2.79.43,5.07,1.3,2.27.86,4.67,1.88,7.18,3.06,2.51,1.18,4.87,2.32,7.07,3.42,2.2,1.1,3.77,1.88,4.71,2.36,4.55,2.36,7.73,5.42,9.54,9.19s2.71,8.09,2.71,12.96c0,5.65-.82,11.19-2.47,16.61-1.65,5.42-21.01,44.71-23.05,49.89,2.36-.78,22.26-35.44,24.7-35.99,2.43-.55,4.91-.82,7.42-.82,2.2,0,4.08.32,5.65.94,1.57.63,2.83,1.88,3.77,3.77.94,1.88,1.69,4.44,2.24,7.66.55,3.22,1.02,6.56,1.41,10.01.39,3.46.63,6.87.71,10.25.08,3.38.12,6.09.12,8.13Z"/>
</svg>