<?xml version="1.0" encoding="UTF-8"?>
<svg id="Layer_1" xmlns="http://www.w3.org/2000/svg" xmlns:serif="http://www.serif.com/" version="1.1" viewBox="0 0 595.3 595.3">
  <!-- Generator: Adobe Illustrator 29.3.0, SVG Export Plug-In . SVG Version: 2.1.0 Build 146)  -->
  <defs>
    <style>
      .st0 {
        fill: #1B3E36;
        fill-rule: evenodd;
      }
    </style>
  </defs>
  <path class="st0" d="M522.5,0C562.7,0,595.3,32.6,595.3,72.7v449.8c0,40.1-32.6,72.7-72.7,72.7h-123.8v-224.3h77.4l14.7-96.1h-92.2v-62.3c0-26.3,12.9-51.9,54.2-51.9h41.9v-81.8s-38-6.5-74.4-6.5c-75.9,0-125.5,46-125.5,129.3v73.2h-84.4v96.1h84.4v224.3H72.7c-40.1,0-72.7-32.6-72.7-72.7V72.7C0,32.6,32.6,0,72.7,0h449.8Z"/>
</svg>