<?xml version="1.0" encoding="UTF-8"?>
<svg id="Layer_1" xmlns="http://www.w3.org/2000/svg" xmlns:serif="http://www.serif.com/" version="1.1" viewBox="0 0 595.3 595.3">
  <!-- Generator: Adobe Illustrator 29.3.0, SVG Export Plug-In . SVG Version: 2.1.0 Build 146)  -->
  <defs>
    <style>
      .st0 {
        fill: #237461;
        fill-rule: evenodd;
      }
    </style>
  </defs>
  <path class="st0" d="M521.9.4c40.1,0,72.7,32.6,72.7,72.7v449.8c0,40.1-32.6,72.7-72.7,72.7H72.1c-40.1,0-72.7-32.6-72.7-72.7V73.2c0-40.2,32.6-72.8,72.7-72.8h449.8ZM297,94.6c-55.3,0-62.2.2-83.9,1.2s-36.4,4.4-49.4,9.5c-13.4,5.2-24.7,12.2-36,23.5-11.3,11.3-18.3,22.7-23.5,36-5,12.9-8.5,27.7-9.5,49.4s-1.2,28.6-1.2,83.9.2,62.2,1.2,83.9c1,21.7,4.4,36.4,9.5,49.4,5.2,13.4,12.2,24.7,23.5,36s22.7,18.3,36,23.5c12.9,5,27.7,8.5,49.4,9.5s28.6,1.2,83.9,1.2,62.2-.2,83.9-1.2c21.7-1,36.4-4.4,49.4-9.5,13.4-5.2,24.7-12.2,36-23.5s18.3-22.7,23.5-36c5-12.9,8.5-27.7,9.5-49.4,1-21.7,1.2-28.6,1.2-83.9s-.2-62.2-1.2-83.9-4.4-36.4-9.5-49.4c-5.2-13.4-12.2-24.7-23.5-36s-22.7-18.3-36-23.5c-12.9-5-27.7-8.5-49.4-9.5-21.7-1-28.6-1.2-83.9-1.2ZM297,131.3c54.3,0,60.8.2,82.2,1.2,19.8.9,30.6,4.2,37.8,7,9.5,3.7,16.3,8.1,23.4,15.2,7.1,7.1,11.5,13.9,15.2,23.4,2.8,7.2,6.1,17.9,7,37.8,1,21.5,1.2,27.9,1.2,82.2s-.2,60.8-1.2,82.2c-.9,19.8-4.2,30.6-7,37.8-3.7,9.5-8.1,16.3-15.2,23.4s-13.9,11.5-23.4,15.2c-7.2,2.8-17.9,6.1-37.8,7-21.5,1-27.9,1.2-82.2,1.2s-60.8-.2-82.2-1.2c-19.8-.9-30.6-4.2-37.8-7-9.5-3.7-16.3-8.1-23.4-15.2-7.1-7.1-11.5-13.9-15.2-23.4-2.8-7.2-6.1-17.9-7-37.8-1-21.5-1.2-27.9-1.2-82.2s.2-60.8,1.2-82.2c.9-19.8,4.2-30.6,7-37.8,3.7-9.5,8.1-16.3,15.2-23.4s13.9-11.5,23.4-15.2c7.2-2.8,17.9-6.1,37.8-7,21.5-1,27.9-1.2,82.2-1.2h0ZM297,193.6c-57.7,0-104.5,46.8-104.5,104.5s46.8,104.5,104.5,104.5,104.5-46.8,104.5-104.5-46.8-104.5-104.5-104.5h0ZM297,365.9c-37.5,0-67.8-30.4-67.8-67.8s30.4-67.8,67.8-67.8,67.8,30.4,67.8,67.8-30.4,67.8-67.8,67.8h0ZM430,189.5c0,13.5-10.9,24.4-24.4,24.4s-24.4-10.9-24.4-24.4,10.9-24.4,24.4-24.4,24.4,10.9,24.4,24.4h0Z"/>
</svg>