<?xml version="1.0" encoding="UTF-8"?>
<svg id="Layer_1" xmlns="http://www.w3.org/2000/svg" version="1.1" viewBox="0 0 2216.13 609.21">
  <!-- Generator: Adobe Illustrator 29.2.1, SVG Export Plug-In . SVG Version: 2.1.0 Build 116)  -->
  <defs>
    <style>
      .st0 {
        fill: #fff;
      }
    </style>
  </defs>
  <path class="st0" d="M1392.62,415.26c-18.17,48.03-60.8,52.47-96.54,53.39-108.73,2.81-125.63-91.14-124.88-180.66.49-58.54-.56-133.96,33.55-184.46,25.2-37.31,68.92-55.91,106.67-66.45,50.77-14.17,80.42-2.44,71.3,50.1-9.11,52.54-33.3,91.12-60.57,120.81,68.99-25.34,81.44,61.59,83.1,110.98,1.11,33.29-2.43,68.53-12.63,96.3ZM1326.87,92.08c-8.71,3.06-27.76,16.8-28.73,27.34-.75,8.2,9.82,6.53,16.08,4.16,8.6-3.26,25.53-14.11,26.91-24.33,1.13-8.33-6.74-9.81-14.26-7.17ZM1317.94,276.18c-6.69,1.87-23.08,12.26-23.39,24.1-.27,10.36,12.17,9.9,17.8,8.57,6.37-1.5,21.28-10.73,21.49-21.64.2-10.39-9.95-12.69-15.89-11.03Z"/>
  <path class="st0" d="M1648,437.65c-18.55,18.47-47.01,28.03-74.01,28-27.79-.04-61.31-9.93-87.19-32.32-72.93-68.43-80.6-199.89-71.4-294.06,2.32-23.74,22.06-103.05,38.16-117.47,14.09-12.62,30.13-21.12,46.4-21.75,9.04-.35,17.1,1.25,22.48,6.15,32.73,27.22-40.37,299.93,23.25,345.52,66.97,47.99,17.74-341.15,116.9-297.23,14.87,6.59,27.91,24.86,30.06,41.15,4.76,32.48-3.45,80.08-5.79,110.68-5.19,67.68,6.94,175.95-38.85,231.34Z"/>
  <path class="st0" d="M1811.19,348.15c16.72,1.51,34.79,3.58,52.82,2.78,145.09-6.45,89.9,114.72-37.91,121.15-26.49,1.33-33.35-2.82-61.99-15.02-26.97-11.48-42.32-43.77-49.13-68.86-17.73-65.31,16.81-116.96,73.69-142.24-9.71-2.88-19.43-6.09-29.46-10.37-40.13-17.09-61.55-34.81-51.72-76.75,2.42-10.31,6.79-20.15,13.16-27.61,15.53-18.7,92.78,10.53,114.97,13.56,30.06,4.11,94.33,17.01,92.9,55.5.24,3.48-.28,7.13-.81,10.32-11.54,69.69-58.12,103.33-116.52,137.51Z"/>
  <path class="st0" d="M2070.79,255.84c-21.53,5.3-20.72,4.4-62.25,15.21-71.22,18.54-66.71-27.43-65.73-35.95,2.12-18.46,8.1-38.85,23.78-53.46,20.07-18.7,83.28-46.75,107.94-54.38,30.7-9.5,60.1-28.81,91.9-24.04,29.77,4.46,39.11,37.42,39.09,68.26-.08,100.84-55.38,212.52-106.68,277.2,12.28-.87,15.08-1.58,28.02-2.44,51.74-3.46,100.42,41.06,87.04,92.77-9.9,38.89-94.62,48.73-119.47,48.82-45.33.16-99.51-11.92-126.1-67.64-2.13-5-3.48-9.95-4.48-14.22-22.37-96.03,56.19-197.4,106.96-250.12Z"/>
  <path class="st0" d="M751.54,609.17c-22.73-1.23-120.94-130.51-136.56-151.06-12.52,24.64-31.42,42.93-59.87,25.05-13.73-8.63-27.7-22.25-31.77-38.56-6.12-59.6,2.91-121.95,1.39-181.83-1.31-51.46-19.22-185.37,53.29-198.53,10.76-1.39,22.06-2.26,33.61-2.05,28.48.54,57.09,12.95,82.47,32.29,40.39,30.78,60.28,90.08,61.07,142.69-.01,1.33-.02,2-.03,3.33-.08,54.52-29.34,122.46-90.39,123.75,27.04,36.57,148.33,165.75,148.09,202.19-.13,18.42-40.29,43.87-61.3,42.73ZM653.41,172.86c-16.44-1.67-26.37,17.29-24.73,47.28,1.43,26.24,18.06,43.1,29.86,45.71,12.78,2.82,25.36-19.47,24.48-45.72-.81-24.23-17.27-46.02-29.61-47.27Z"/>
  <path class="st0" d="M964.43,456.12c-26.01,17.28-54.66,30.85-80.35,38.81-94.64,29.34-120.77-71.53-112.51-144.66,3.15-27.9,7.52-62.4,12.25-94.31,10.31-80.25,36-191.8,134.66-190.79,7.85.08,15.53.43,23.51,1.34,83.49,12.53,109.79,123.54,109.87,195.05.08,70.34-25.41,155.56-87.44,194.55ZM915.38,131.7c-34.05,20.67-31.03,145.43-32.84,204.56-1.85,60.26,8.4,97.87,16.12,91.97,34.8-26.6,42.08-138.51,41.06-197.22-1.18-68.18-18.42-102.9-24.34-99.31Z"/>
  <path class="st0" d="M120.05,465.37c21.25-4.92,41.79-10.14,61.31-13.74,16.8-3.1,46.76-11.32,64.33-4.82,17.57,6.5,31.66,10.02,31.7,38.59.04,28.57-9.19,39.94-24.79,54.76-19.98,18.98-84.01,43.04-107.77,51.11-29.59,10.05-74.64,22.04-106.02,16.5C9.42,602.58-.86,564.72.06,532.06c3.09-109.78,83.57-240.86,138.94-314.05-12.14.73-24.36,2.04-37.23,2.82-51.48,3.11-98.21,26.72-98.46-46.23-.06-17.94,1.75-37.08,5.9-54.41,9.94-43.01,94.93-53.66,119.81-53.73,45.07-.11,99.6,12.8,125.37,75.56,2.06,5.66,3.19,11.37,4.27,16.15,24.75,109.15-89.96,249.33-138.6,307.19Z"/>
  <path class="st0" d="M384.33,239.31c0,15.63,90.05,29.25,91.06,71.57,1.16,48.65-102.3,64.76-86.77,87.44,21.58,31.5,94.98-30.67,90.97,76.77-2.24,59.94-59.86,44.14-93.48,38.19-68.53-12.14-88.65-109.51-95.59-199.07-6.86-88.43,2.82-245.55,84.02-244.69,47.1.5,90.93,14.14,101.85,84.58,10.17,65.6-92.06,39.93-92.06,85.23Z"/>
  <g>
    <path class="st0" d="M1257.65,559.67c3.13-1.27,5.86-2.99,7.88-5.49,2.53-3.13,3.79-6.9,3.79-11.33,0-3.99-1.01-7.44-3.05-10.36-2.03-2.92-4.93-5.16-8.71-6.73-3.78-1.56-8.37-2.35-13.78-2.35h-26.07c-3.35,0-5.89.87-7.64,2.62-1.75,1.75-2.62,4.29-2.62,7.64v54.81c0,3.35.87,5.9,2.62,7.64,1.75,1.75,4.29,2.62,7.64,2.62h27.03c8.26,0,14.76-1.9,19.5-5.71,4.74-3.81,7.11-9.03,7.11-15.65,0-5.06-1.41-9.15-4.22-12.29-2.33-2.59-5.61-4.28-9.48-5.41ZM1226.16,537.83h14c3.7,0,6.37.62,8.01,1.87,1.64,1.25,2.46,3.19,2.46,5.82s-.82,4.59-2.46,5.88c-1.64,1.28-4.31,1.93-8.01,1.93h-14v-15.49ZM1250.14,582.22c-1.67,1.39-4.33,2.08-7.96,2.08h-16.03v-16.67h16.03c3.63,0,6.29.7,7.96,2.08,1.67,1.39,2.51,3.51,2.51,6.36s-.84,4.75-2.51,6.14Z"/>
    <path class="st0" d="M1468.41,577.36c-1.57-2.99-3.53-5.22-5.88-6.68-1.24-.77-2.58-1.31-4-1.67,1.52-.42,3.09-.8,4.43-1.43,3.99-1.88,7.01-4.58,9.08-8.07,2.06-3.49,3.1-7.66,3.1-12.5,0-7.41-2.32-13.19-6.94-17.36-4.63-4.17-11.18-6.25-19.66-6.25h-26.28c-3.21,0-5.68.86-7.42,2.56-1.75,1.71-2.62,4.2-2.62,7.48v56.3c0,3.13.85,5.59,2.56,7.37,1.71,1.78,4.17,2.67,7.37,2.67s5.54-.89,7.21-2.67c1.67-1.78,2.51-4.24,2.51-7.37v-19.13h5.88c1.71,0,3.22.31,4.54.91,1.32.61,2.4,1.66,3.26,3.15l9.72,18.06c1.35,2.42,2.9,4.2,4.65,5.34,1.75,1.14,3.97,1.71,6.68,1.71,2.92,0,5.07-.64,6.46-1.92,1.39-1.29,2.14-2.89,2.24-4.81.11-1.92-.45-3.95-1.66-6.09l-5.23-9.62ZM1444.9,556.74h-13.03v-18.27h13.03c3.77,0,6.64.75,8.6,2.25,1.96,1.5,2.94,3.81,2.94,6.94s-.98,5.34-2.94,6.84c-1.96,1.5-4.83,2.24-8.6,2.24Z"/>
    <path class="st0" d="M1667.61,538.58c2.42,0,4.29-.66,5.61-1.98,1.32-1.31,1.98-3.22,1.98-5.71s-.66-4.27-1.98-5.55c-1.32-1.28-3.19-1.93-5.61-1.93h-36.33c-3.35,0-5.89.87-7.64,2.62-1.75,1.75-2.62,4.29-2.62,7.64v54.81c0,3.35.87,5.9,2.62,7.64,1.74,1.75,4.29,2.62,7.64,2.62h36.33c2.42,0,4.29-.64,5.61-1.92,1.32-1.29,1.98-3.17,1.98-5.66s-.66-4.29-1.98-5.61c-1.32-1.32-3.19-1.98-5.61-1.98h-27.88v-15.49h25.43c2.49,0,4.38-.66,5.66-1.98,1.28-1.31,1.92-3.18,1.92-5.61s-.64-4.38-1.92-5.66c-1.28-1.28-3.17-1.92-5.66-1.92h-25.43v-14.32h27.88Z"/>
    <path class="st0" d="M1907.25,525.76c-1.5-2.28-3.88-3.42-7.16-3.42-2.64,0-4.68.64-6.14,1.93-1.46,1.28-2.62,3.24-3.47,5.88l-14.19,41.74-13.91-41.63c-.93-2.78-2.1-4.79-3.53-6.04-1.43-1.25-3.31-1.87-5.66-1.87s-4.27.63-5.77,1.87c-1.5,1.25-2.74,3.22-3.74,5.93l-14.45,40.62-13.54-40.62c-.86-2.64-2.03-4.59-3.53-5.88-1.5-1.28-3.6-1.93-6.3-1.93-3.85,0-6.54,1.14-8.07,3.42-1.53,2.28-1.76,5.02-.69,8.23l20.83,58.02c1,2.7,2.31,4.68,3.95,5.93,1.64,1.25,3.77,1.87,6.41,1.87,2.78,0,4.93-.62,6.46-1.87,1.53-1.25,2.8-3.19,3.79-5.82l14.04-38.7,13.74,38.6c.92,2.7,2.21,4.68,3.85,5.93,1.64,1.25,3.74,1.87,6.3,1.87,2.71,0,4.86-.62,6.46-1.87,1.6-1.25,2.9-3.19,3.9-5.82l20.83-58.12c1.21-3.21,1.07-5.95-.43-8.23Z"/>
  </g>
</svg>