<?xml version="1.0" encoding="UTF-8"?>
<svg id="Layer_1" xmlns="http://www.w3.org/2000/svg" version="1.1" viewBox="0 0 1106.5 1023.7">
  <!-- Generator: Adobe Illustrator 29.2.1, SVG Export Plug-In . SVG Version: 2.1.0 Build 116)  -->
  <defs>
    <style>
      .st0 {
        fill: #fff;
      }
    </style>
  </defs>
  <g>
    <path class="st0" d="M56.08,1013.14c-2.83,0-4.96-.73-6.43-2.21-1.48-1.46-2.21-3.6-2.21-6.43v-46.16c0-2.81.73-4.96,2.21-6.43,1.46-1.46,3.6-2.21,6.43-2.21h21.95c4.55,0,8.43.67,11.61,1.99,3.18,1.32,5.62,3.21,7.32,5.67,1.71,2.46,2.58,5.36,2.58,8.73,0,3.72-1.07,6.9-3.21,9.53-2.12,2.64-4.99,4.47-8.58,5.49v-1.54c4.26.85,7.57,2.58,9.94,5.23,2.36,2.64,3.54,6.08,3.54,10.34,0,5.58-1.99,9.97-5.97,13.18-4,3.21-9.46,4.82-16.43,4.82h-22.76ZM63.19,974.91h11.79c3.12,0,5.37-.54,6.75-1.63,1.38-1.08,2.06-2.72,2.06-4.95s-.69-3.85-2.06-4.91c-1.38-1.04-3.63-1.57-6.75-1.57h-11.79v13.05ZM63.19,1001h13.5c3.06,0,5.29-.59,6.71-1.76,1.41-1.17,2.11-2.9,2.11-5.18s-.7-4.17-2.11-5.34c-1.42-1.17-3.65-1.76-6.71-1.76h-13.5v14.04Z"/>
    <path class="st0" d="M260.05,1014.03c-2.71,0-4.77-.75-6.21-2.24-1.45-1.49-2.17-3.57-2.17-6.21v-47.41c0-2.75.73-4.86,2.21-6.3,1.46-1.44,3.54-2.17,6.25-2.17h22.13c7.15,0,12.65,1.76,16.56,5.27,3.9,3.51,5.84,8.38,5.84,14.61,0,4.09-.86,7.6-2.61,10.53-1.74,2.94-4.29,5.21-7.64,6.79-3.37,1.6-7.41,2.39-12.15,2.39l.63-1.63h4.41c2.52,0,4.77.62,6.75,1.85,1.98,1.23,3.63,3.1,4.95,5.62l4.41,8.1c1.03,1.8,1.48,3.51,1.39,5.13-.09,1.63-.72,2.97-1.89,4.06s-2.99,1.61-5.43,1.61c-2.28,0-4.16-.47-5.62-1.44-1.48-.95-2.78-2.46-3.92-4.5l-8.19-15.2c-.72-1.26-1.64-2.15-2.74-2.67-1.11-.5-2.39-.76-3.82-.76h-4.95v16.11c0,2.64-.7,4.72-2.12,6.21-1.41,1.49-3.43,2.24-6.06,2.24ZM268.23,977.78h10.97c3.18,0,5.59-.63,7.25-1.89,1.64-1.26,2.47-3.18,2.47-5.75s-.83-4.58-2.47-5.84c-1.65-1.26-4.07-1.89-7.25-1.89h-10.97v15.38Z"/>
    <path class="st0" d="M464.9,1013.14c-2.83,0-4.96-.73-6.43-2.21-1.48-1.46-2.21-3.6-2.21-6.43v-46.16c0-2.81.73-4.96,2.21-6.43,1.46-1.46,3.6-2.21,6.43-2.21h30.59c2.04,0,3.62.54,4.73,1.63,1.1,1.08,1.65,2.64,1.65,4.69s-.56,3.7-1.65,4.8c-1.11,1.11-2.69,1.67-4.73,1.67h-23.49v12.05h21.42c2.09,0,3.69.54,4.76,1.63,1.08,1.08,1.63,2.67,1.63,4.76s-.54,3.62-1.63,4.73c-1.07,1.11-2.67,1.67-4.76,1.67h-21.42v13.05h23.49c2.04,0,3.62.54,4.73,1.65,1.1,1.11,1.65,2.69,1.65,4.73s-.56,3.69-1.65,4.76c-1.11,1.08-2.69,1.63-4.73,1.63h-30.59Z"/>
    <path class="st0" d="M677.24,1014.03c-2.23,0-4.03-.51-5.4-1.57-1.38-1.05-2.49-2.71-3.32-4.99l-17.54-48.85c-.91-2.71-.72-5.01.59-6.93,1.29-1.92,3.54-2.88,6.78-2.88,2.28,0,4.06.54,5.32,1.63,1.26,1.07,2.26,2.72,2.97,4.95l13.4,40.21h-4.13l14.29-40.21c.85-2.28,1.89-3.95,3.15-4.99,1.26-1.05,2.88-1.58,4.86-1.58s3.57.53,4.77,1.58c1.2,1.04,2.18,2.74,2.97,5.08l13.4,40.12h-3.41l13.66-40.21c.73-2.23,1.7-3.88,2.93-4.95,1.23-1.08,2.96-1.63,5.17-1.63,2.77,0,4.77.97,6.03,2.88,1.26,1.92,1.38,4.22.37,6.93l-17.54,48.94c-.85,2.23-1.95,3.85-3.29,4.91-1.35,1.05-3.16,1.57-5.43,1.57s-3.94-.51-5.32-1.57c-1.38-1.05-2.46-2.71-3.24-4.99l-12.68-35.63h2.24l-12.96,35.71c-.83,2.23-1.9,3.85-3.19,4.91s-3.1,1.57-5.43,1.57Z"/>
  </g>
  <path class="st0" d="M236.58,842.18c-19.12,50.53-63.96,55.19-101.55,56.16C20.65,901.29,2.88,802.47,3.66,708.29c.51-61.58-.58-140.91,35.3-194.04,26.51-39.25,72.5-58.81,112.21-69.9,53.41-14.91,84.6-2.57,75.01,52.7-9.59,55.27-35.03,95.85-63.72,127.08,72.57-26.66,85.67,64.79,87.41,116.74,1.17,35.02-2.56,72.09-13.29,101.3ZM167.42,502.22c-9.16,3.22-29.2,17.67-30.22,28.76-.79,8.63,10.33,6.87,16.92,4.37,9.05-3.43,26.85-14.84,28.31-25.6,1.18-8.76-7.09-10.32-15-7.54ZM158.02,695.87c-7.03,1.96-24.28,12.9-24.61,25.35-.29,10.9,12.81,10.41,18.72,9.02,6.7-1.58,22.38-11.29,22.6-22.77.21-10.93-10.47-13.34-16.72-11.6ZM505.22,865.73c-19.51,19.43-49.45,29.49-77.85,29.45-29.23-.04-64.49-10.45-91.72-34-76.71-71.99-84.79-210.27-75.11-309.34,2.44-24.98,23.21-108.4,40.14-123.57,14.82-13.28,31.7-22.21,48.81-22.88,9.51-.37,17.99,1.31,23.64,6.47,34.43,28.64-42.46,315.5,24.45,363.46,70.45,50.49,18.66-358.87,122.97-312.67,15.64,6.93,29.36,26.16,31.63,43.29,5.01,34.17-3.63,84.24-6.1,116.43-5.46,71.19,7.3,185.08-40.87,243.35ZM676.88,761.63c17.59,1.52,36.59,3.6,55.57,2.8,152.63-6.5,94.57,115.56-39.88,122.04-27.87,1.34-35.08-2.84-65.21-15.13-28.37-11.56-44.52-44.09-51.68-69.36-18.65-65.78,17.68-117.81,77.52-143.27-10.22-2.9-20.44-6.14-30.99-10.44-42.22-17.22-64.75-35.07-54.41-77.31,2.54-10.39,7.14-20.29,13.85-27.81,16.34-18.84,97.6,10.61,120.94,13.66,31.62,4.14,99.23,17.13,97.72,55.91.25,3.51-.3,7.19-.85,10.4-12.14,70.2-61.14,104.09-122.57,138.52ZM949.97,674.48c-22.65,5.58-21.8,4.62-65.49,16-74.92,19.51-70.17-28.85-69.14-37.82,2.23-19.42,8.52-40.86,25.01-56.23,21.11-19.67,87.61-49.18,113.54-57.2,32.3-9.99,63.22-30.31,96.67-25.29,31.31,4.69,41.14,39.37,41.12,71.81-.09,106.08-58.26,223.56-112.22,291.59,12.92-.91,15.87-1.66,29.47-2.57,54.43-3.64,105.63,43.19,91.56,97.58-10.42,40.9-99.54,51.26-125.68,51.35-47.68.17-104.68-12.54-132.65-71.15-2.25-5.26-3.67-10.47-4.71-14.96-23.53-101.02,59.11-207.65,112.51-263.12ZM750.42,535.61c-23.91-1.3-87.07-97.47-103.5-119.09-13.17,25.92-33.05,45.16-62.98,26.35-14.45-9.08-29.14-23.41-33.42-40.56-6.44-62.7,3.06-128.28,1.46-191.28-1.37-54.13-20.21-194.99,56.05-208.84,11.32-1.46,23.21-2.38,35.35-2.15,29.96.57,60.06,13.62,86.76,33.96,42.49,32.38,63.41,94.76,64.24,150.1-.01,1.4-.02,2.1-.03,3.5-.09,57.35-30.87,128.82-95.08,130.18,28.44,38.47,115.89,134.54,115.63,172.87-.13,19.38-42.38,46.15-64.48,44.95ZM687.34,116.45c-17.3-1.76-27.74,18.19-26.02,49.74,1.5,27.61,19,45.34,31.41,48.08,13.45,2.96,26.67-20.49,25.75-48.09-.85-25.49-18.17-48.41-31.14-49.72ZM1014.52,414.42c-27.36,18.17-57.5,32.45-84.52,40.83-99.56,30.87-127.04-75.25-118.35-152.17,3.32-29.35,7.91-65.64,12.89-99.21,10.84-84.42,37.86-201.76,141.66-200.7,8.26.08,16.34.46,24.73,1.41,87.82,13.18,115.49,129.95,115.57,205.18.08,74-26.73,163.64-91.98,204.66ZM962.92,73.16c-35.82,21.74-32.64,152.99-34.54,215.18-1.94,63.39,8.83,102.95,16.95,96.75,36.6-27.98,44.26-145.71,43.19-207.46-1.24-71.72-19.38-108.24-25.6-104.47ZM157.53,269.65c22.36-3.56,43.96-7.33,64.5-9.93,17.67-2.24,49.5-5.02,63.73-.59,7.29,2.78,7.3,41.86,6.03,48.28-2.74,13.91-9.66,28.87-26.08,39.59-21.02,13.72-88.37,31.11-113.37,36.95-31.13,7.27-78.51,15.93-111.53,11.93C9.91,392.14-.91,364.77.06,341.15c3.25-79.37,67.05-154.96,125.3-207.88-12.77.53-25.63,1.47-39.17,2.04-54.15,2.25-82.45.14-82.71-52.6-.06-12.97,1.84-26.81,6.21-39.33C20.14,12.29,109.55,4.58,135.71,4.54c47.41-.08,104.77,9.25,131.88,54.63,2.17,4.09,3.35,8.22,4.49,11.67,26.04,78.91-63.39,156.98-114.55,198.81ZM412.58,154.33c0,12.23,102.59,8.21,103.74,41.34,1.32,38.08-119,51.99-98.82,68.44,20.18,16.45,110.61-40.34,103.61,60.09-3.27,46.9-68.17,34.55-106.47,29.89-78.05-9.5-100.96-85.72-108.87-155.83-7.81-69.22,3.21-192.21,95.69-191.54,53.64.39,101.25,18.15,113.68,73.28,11.58,51.35-102.56,38.86-102.56,74.32Z"/>
</svg>